<svg width="62" height="62" viewBox="0 0 62 62" fill="none" xmlns="http://www.w3.org/2000/svg">
<circle cx="31" cy="31" r="30" stroke="white" stroke-opacity="0.2"/>
<g clip-path="url(#clip0)">
<path d="M39.125 23.5H22.875C21.8411 23.5 21 24.3411 21 25.375V36.625C21 37.659 21.8411 38.5 22.875 38.5H39.125C40.1589 38.5 41 37.659 41 36.625V25.375C41 24.3411 40.1589 23.5 39.125 23.5V23.5ZM39.125 24.75C39.2099 24.75 39.2907 24.7676 39.3645 24.7984L31 32.048L22.6354 24.7984C22.7093 24.7677 22.7901 24.75 22.875 24.75H39.125ZM39.125 37.25H22.875C22.5302 37.25 22.25 36.9699 22.25 36.625V26.119L30.5904 33.3474C30.7083 33.4493 30.8541 33.5 31 33.5C31.1459 33.5 31.2917 33.4494 31.4096 33.3474L39.75 26.119V36.625C39.75 36.9699 39.4698 37.25 39.125 37.25V37.25Z" fill="white"/>
</g>
<defs>
<clipPath id="clip0">
<rect x="21" y="21" width="20" height="20" fill="white"/>
</clipPath>
</defs>
</svg>
